<svg width="12" height="22" viewBox="0 0 12 22" fill="none" xmlns="http://www.w3.org/2000/svg">
<path d="M0.430913 0.460508C0.680392 0.194308 1.01114 0.0324564 1.36302 0.00438047C1.71489 -0.0236955 2.06453 0.0838688 2.34835 0.307517L2.51338 0.460508L11.354 9.89147C11.6036 10.1576 11.7553 10.5104 11.7816 10.8858C11.8079 11.2612 11.7071 11.6342 11.4974 11.9369L11.354 12.113L2.51338 21.544C2.25012 21.8226 1.89805 21.9851 1.52743 21.999C1.15681 22.0129 0.794891 21.8773 0.513914 21.6191C0.232938 21.3609 0.0535653 20.9991 0.0115965 20.6061C-0.0303722 20.213 0.0681492 19.8175 0.287498 19.4985L0.430913 19.3224L8.23033 11.0022L0.430913 2.68202C0.154985 2.38731 0 1.9878 0 1.57127C0 1.15473 0.154985 0.755226 0.430913 0.460508Z" fill="#868686"/>
</svg>
