<svg width="220" height="51" viewBox="0 0 220 51" fill="none" xmlns="http://www.w3.org/2000/svg">
<g filter="url(#filter0_d)">
<path d="M15.2737 40.1919C10.8711 40.1919 7.38798 38.8253 4.82443 36.0921C2.27481 33.3451 1 29.5818 1 24.8022C1 20.0362 2.28178 16.2867 4.84533 13.5535C7.40888 10.8065 10.885 9.43308 15.2737 9.43308C17.67 9.43308 19.8435 9.90006 21.794 10.834C23.7585 11.768 25.3328 13.0865 26.5171 14.7896C27.7013 16.4927 28.3701 18.4362 28.5233 20.62L22.3792 20.62C22.0866 18.7933 21.2855 17.3305 19.9758 16.2317C18.6801 15.133 17.1127 14.5836 15.2737 14.5836C12.8913 14.5836 10.9895 15.5038 9.56839 17.3442C8.14729 19.1847 7.43674 21.6638 7.43674 24.7816C7.43674 27.9543 8.14033 30.4608 9.54749 32.3013C10.9547 34.128 12.8704 35.0414 15.2946 35.0414C17.1615 35.0414 18.7289 34.5332 19.9967 33.5168C21.2646 32.5004 22.0657 31.1132 22.4001 29.3552L28.5442 29.3552C28.1959 32.6653 26.8236 35.3023 24.4272 37.2664C22.0309 39.2167 18.9797 40.1919 15.2737 40.1919Z" fill="url(#paint0_radial)"/>
<path d="M50.3205 37.1016C48.3282 39.1343 45.6253 40.1506 42.2119 40.1506C38.7984 40.1506 36.0956 39.1274 34.1032 37.081C32.1109 35.0345 31.1148 32.212 31.1148 28.6135C31.1148 25.0563 32.1179 22.2544 34.1241 20.2079C36.1443 18.1477 38.8402 17.1176 42.2119 17.1176C45.5974 17.1176 48.2933 18.1477 50.2996 20.2079C52.3058 22.2544 53.309 25.0563 53.309 28.6135C53.309 32.2257 52.3128 35.0551 50.3205 37.1016ZM42.2119 35.5564C43.7166 35.5564 44.9078 34.9521 45.7855 33.7434C46.6632 32.5348 47.1021 30.8317 47.1021 28.6341C47.1021 26.4641 46.6632 24.7678 45.7855 23.5454C44.9078 22.3231 43.7166 21.7119 42.2119 21.7119C40.7072 21.7119 39.509 22.3231 38.6173 23.5454C37.7396 24.7678 37.3007 26.4641 37.3007 28.6341C37.3007 30.8317 37.7396 32.5348 38.6173 33.7434C39.4951 34.9521 40.6932 35.5564 42.2119 35.5564Z" fill="url(#paint1_radial)"/>
<path d="M76.4018 17.5915L68.7112 39.6768L61.8147 39.6768L54.0613 17.5915L60.6025 17.5915L65.2629 34.3615L65.3883 34.3615L70.0278 17.5915L76.4018 17.5915Z" fill="url(#paint2_radial)"/>
<path d="M78.638 39.6768L78.638 17.5915L84.7403 17.5915L84.7403 39.6768L78.638 39.6768ZM84.0089 14.2539C83.3819 14.8583 82.6087 15.1604 81.6891 15.1604C80.7696 15.1604 79.9964 14.8583 79.3694 14.2539C78.7424 13.6496 78.429 12.9148 78.429 12.0495C78.429 11.1705 78.7424 10.4357 79.3694 9.84512C79.9964 9.24079 80.7696 8.93863 81.6891 8.93863C82.6087 8.93863 83.3819 9.24079 84.0089 9.84512C84.6358 10.4357 84.9493 11.1705 84.9493 12.0495C84.9493 12.9148 84.6358 13.6496 84.0089 14.2539Z" fill="url(#paint3_radial)"/>
<path d="M99.1603 34.9795C100.693 34.9795 101.905 34.4164 102.797 33.2902C103.702 32.1502 104.155 30.5845 104.155 28.5929C104.155 26.6014 103.702 25.015 102.797 23.8339C101.891 22.6527 100.679 22.0621 99.1603 22.0621C97.6556 22.0621 96.4574 22.6527 95.5657 23.8339C94.688 25.0013 94.2491 26.5877 94.2491 28.5929C94.2491 30.5982 94.688 32.1639 95.5657 33.2902C96.4435 34.4164 97.6417 34.9795 99.1603 34.9795ZM99.0558 48C96.1439 48 93.7476 47.3682 91.8667 46.1046C89.9998 44.8548 88.9409 43.2341 88.6901 41.2426L94.6671 41.2426C94.904 42.0117 95.4334 42.6298 96.2554 43.0967C97.0913 43.5774 98.0805 43.8178 99.223 43.8178C100.769 43.8178 101.975 43.4264 102.838 42.6435C103.702 41.8743 104.134 40.8374 104.134 39.5326L104.134 35.6594L104.009 35.6594C103.479 36.8543 102.595 37.8158 101.355 38.5437C100.115 39.2579 98.6936 39.615 97.0913 39.615C94.3327 39.615 92.1245 38.6261 90.4665 36.6483C88.8225 34.6705 88.0005 31.9717 88.0005 28.5517C88.0005 25.0494 88.8225 22.2887 90.4665 20.2697C92.1105 18.2507 94.3536 17.2412 97.1958 17.2412C98.7841 17.2412 100.184 17.6189 101.396 18.3743C102.609 19.1297 103.514 20.153 104.113 21.444L104.218 21.444L104.218 17.5915L110.236 17.5915L110.236 39.3678C110.236 41.9911 109.212 44.0856 107.164 45.6514C105.13 47.2171 102.427 48 99.0558 48Z" fill="url(#paint4_radial)"/>
<path d="M124.28 21.5676C122.957 21.5676 121.849 22.014 120.957 22.9068C120.08 23.7995 119.585 24.9395 119.474 26.3267L128.982 26.3267C128.913 24.912 128.446 23.7652 127.582 22.8862C126.732 22.0072 125.632 21.5676 124.28 21.5676ZM129.066 32.9193L134.667 32.9193C134.332 35.0894 133.232 36.8406 131.365 38.1729C129.512 39.4914 127.206 40.1506 124.447 40.1506C121.006 40.1506 118.303 39.1343 116.339 37.1015C114.388 35.0688 113.413 32.2807 113.413 28.7371C113.413 25.2073 114.388 22.3917 116.339 20.2903C118.289 18.1752 120.916 17.1176 124.218 17.1176C127.464 17.1176 130.048 18.1202 131.971 20.1255C133.894 22.1308 134.855 24.8159 134.855 28.1809L134.855 30.0145L119.411 30.0145L119.411 30.3853C119.411 31.9648 119.878 33.249 120.811 34.2379C121.759 35.213 123.005 35.7006 124.552 35.7006C125.667 35.7006 126.628 35.4534 127.436 34.9589C128.244 34.4508 128.787 33.7709 129.066 32.9193Z" fill="url(#paint5_radial)"/>
<path d="M138.011 39.6768L138.011 17.5915L143.904 17.5915L143.904 21.5264L144.029 21.5264C144.642 20.1255 145.534 19.0542 146.704 18.3125C147.889 17.5571 149.331 17.1794 151.03 17.1794C153.51 17.1794 155.426 17.9074 156.777 19.3632C158.129 20.8191 158.805 22.845 158.805 25.4408L158.805 39.6768L152.702 39.6768L152.702 26.6975C152.702 25.2417 152.354 24.1223 151.657 23.3394C150.961 22.5565 149.937 22.1651 148.585 22.1651C147.234 22.1651 146.147 22.6115 145.325 23.5042C144.517 24.397 144.113 25.5644 144.113 27.0066L144.113 39.6768L138.011 39.6768Z" fill="url(#paint6_radial)"/>
<path d="M183.026 25.8117L177.363 25.8117C177.181 24.6167 176.701 23.6553 175.921 22.9274C175.154 22.1994 174.158 21.8355 172.932 21.8355C171.413 21.8355 170.215 22.4398 169.337 23.6484C168.474 24.8434 168.042 26.4984 168.042 28.6135C168.042 30.7699 168.474 32.4455 169.337 33.6404C170.215 34.8353 171.42 35.4328 172.953 35.4328C174.165 35.4328 175.154 35.0963 175.921 34.4233C176.687 33.7366 177.167 32.7889 177.363 31.5802L183.047 31.5802C182.894 34.1898 181.897 36.2706 180.058 37.8226C178.219 39.3746 175.83 40.1506 172.89 40.1506C169.491 40.1506 166.802 39.1274 164.823 37.0809C162.845 35.0207 161.856 32.1983 161.856 28.6135C161.856 25.0837 162.845 22.2887 164.823 20.2285C166.816 18.1546 169.491 17.1176 172.848 17.1176C175.83 17.1176 178.233 17.928 180.058 19.5487C181.897 21.1693 182.887 23.257 183.026 25.8117Z" fill="url(#paint7_radial)"/>
<path d="M188.857 47.8558C187.519 47.8558 111.853 47.8352 111.658 47.794L112.549 43.1585C112.675 43.186 187.192 43.1997 188.083 43.1997C189.212 43.1997 190.069 43.0074 190.654 42.6229C191.239 42.252 191.636 41.6271 191.845 40.7481C191.845 40.7344 191.88 40.5627 191.95 40.2331C192.019 39.9034 192.047 39.7249 192.033 39.6974L184.238 17.5915L190.947 17.5915L195.711 34.8559L195.816 34.8559L204.342 0.999989L210.779 0.999988L199.306 40.1712C198.345 43.0006 197.077 44.9852 195.502 46.1252C193.942 47.2789 191.727 47.8558 188.857 47.8558Z" fill="url(#paint8_radial)"/>
<path d="M191.142 8.03214L217 8.03213L217 13.3062L191.142 13.3062L191.142 8.03214Z" fill="url(#paint9_radial)"/>
</g>
<defs>
<filter id="filter0_d" x="0" y="0" width="220" height="51" filterUnits="userSpaceOnUse" color-interpolation-filters="sRGB">
<feFlood flood-opacity="0" result="BackgroundImageFix"/>
<feColorMatrix in="SourceAlpha" type="matrix" values="0 0 0 0 0 0 0 0 0 0 0 0 0 0 0 0 0 0 127 0"/>
<feOffset dx="1" dy="1"/>
<feGaussianBlur stdDeviation="1"/>
<feColorMatrix type="matrix" values="0 0 0 0 0 0 0 0 0 0 0 0 0 0 0 0 0 0 0.4 0"/>
<feBlend mode="normal" in2="BackgroundImageFix" result="effect1_dropShadow"/>
<feBlend mode="normal" in="SourceGraphic" in2="effect1_dropShadow" result="shape"/>
</filter>
<radialGradient id="paint0_radial" cx="0" cy="0" r="1" gradientUnits="userSpaceOnUse" gradientTransform="translate(1 1) rotate(12.2758) scale(221.054 1011.89)">
<stop offset="0.0722357" stop-color="#56FFC2"/>
<stop offset="0.889608" stop-color="#4BC749"/>
</radialGradient>
<radialGradient id="paint1_radial" cx="0" cy="0" r="1" gradientUnits="userSpaceOnUse" gradientTransform="translate(1 1) rotate(12.2758) scale(221.054 1011.89)">
<stop offset="0.0722357" stop-color="#56FFC2"/>
<stop offset="0.889608" stop-color="#4BC749"/>
</radialGradient>
<radialGradient id="paint2_radial" cx="0" cy="0" r="1" gradientUnits="userSpaceOnUse" gradientTransform="translate(1 1) rotate(12.2758) scale(221.054 1011.89)">
<stop offset="0.0722357" stop-color="#56FFC2"/>
<stop offset="0.889608" stop-color="#4BC749"/>
</radialGradient>
<radialGradient id="paint3_radial" cx="0" cy="0" r="1" gradientUnits="userSpaceOnUse" gradientTransform="translate(1 1) rotate(12.2758) scale(221.054 1011.89)">
<stop offset="0.0722357" stop-color="#56FFC2"/>
<stop offset="0.889608" stop-color="#4BC749"/>
</radialGradient>
<radialGradient id="paint4_radial" cx="0" cy="0" r="1" gradientUnits="userSpaceOnUse" gradientTransform="translate(1 1) rotate(12.2758) scale(221.054 1011.89)">
<stop offset="0.0722357" stop-color="#56FFC2"/>
<stop offset="0.889608" stop-color="#4BC749"/>
</radialGradient>
<radialGradient id="paint5_radial" cx="0" cy="0" r="1" gradientUnits="userSpaceOnUse" gradientTransform="translate(1 1) rotate(12.2758) scale(221.054 1011.89)">
<stop offset="0.0722357" stop-color="#56FFC2"/>
<stop offset="0.889608" stop-color="#4BC749"/>
</radialGradient>
<radialGradient id="paint6_radial" cx="0" cy="0" r="1" gradientUnits="userSpaceOnUse" gradientTransform="translate(1 1) rotate(12.2758) scale(221.054 1011.89)">
<stop offset="0.0722357" stop-color="#56FFC2"/>
<stop offset="0.889608" stop-color="#4BC749"/>
</radialGradient>
<radialGradient id="paint7_radial" cx="0" cy="0" r="1" gradientUnits="userSpaceOnUse" gradientTransform="translate(1 1) rotate(12.2758) scale(221.054 1011.89)">
<stop offset="0.0722357" stop-color="#56FFC2"/>
<stop offset="0.889608" stop-color="#4BC749"/>
</radialGradient>
<radialGradient id="paint8_radial" cx="0" cy="0" r="1" gradientUnits="userSpaceOnUse" gradientTransform="translate(1 1) rotate(12.2758) scale(221.054 1011.89)">
<stop offset="0.0722357" stop-color="#56FFC2"/>
<stop offset="0.889608" stop-color="#4BC749"/>
</radialGradient>
<radialGradient id="paint9_radial" cx="0" cy="0" r="1" gradientUnits="userSpaceOnUse" gradientTransform="translate(1 1) rotate(12.2758) scale(221.054 1011.89)">
<stop offset="0.0722357" stop-color="#56FFC2"/>
<stop offset="0.889608" stop-color="#4BC749"/>
</radialGradient>
</defs>
</svg>
