<svg width="618" height="277" viewBox="0 0 618 277" fill="none" xmlns="http://www.w3.org/2000/svg">
<g clip-path="url(#clip0)">
<rect width="618" height="277" rx="12" fill="url(#paint0_radial)"/>
<g opacity="0.75">
<g filter="url(#filter0_f)">
<path d="M123.488 178.089C97.9474 203.166 65.756 214.37 26.9136 211.702C-11.9289 209.034 -32.503 184.492 -34.8087 138.074C-37.1144 91.6569 -18.58 70.4934 20.7946 74.5838C60.1691 78.6742 93.5133 90.6788 120.827 110.597C148.141 130.516 149.028 153.013 123.488 178.089Z" fill="#AD9FFF" fill-opacity="0.8"/>
</g>
<g filter="url(#filter1_f)">
<path d="M396.842 11.2353C364.96 42.3953 324.775 56.3179 276.288 53.003C227.8 49.6881 202.117 19.1911 199.239 -38.4881C196.361 -96.1672 219.497 -122.465 268.649 -117.383C317.801 -112.3 359.425 -97.3827 393.521 -72.6315C427.618 -47.8803 428.725 -19.9247 396.842 11.2353Z" fill="#FFAE8B" fill-opacity="0.9"/>
</g>
<g filter="url(#filter2_f)">
<path d="M645.842 161.322C613.96 192.482 573.775 206.405 525.288 203.09C476.8 199.775 451.117 169.278 448.239 111.599C445.361 53.9197 468.497 27.6215 517.649 32.7044C566.801 37.7872 608.425 52.7042 642.521 77.4554C676.618 102.207 677.725 130.162 645.842 161.322Z" fill="#E5ADFF" fill-opacity="0.7"/>
</g>
</g>
</g>
<defs>
<filter id="filter0_f" x="-135" y="-25.9131" width="377" height="338" filterUnits="userSpaceOnUse" color-interpolation-filters="sRGB">
<feFlood flood-opacity="0" result="BackgroundImageFix"/>
<feBlend mode="normal" in="SourceGraphic" in2="BackgroundImageFix" result="shape"/>
<feGaussianBlur stdDeviation="50" result="effect1_foregroundBlur"/>
</filter>
<filter id="filter1_f" x="99" y="-218" width="420.952" height="371.481" filterUnits="userSpaceOnUse" color-interpolation-filters="sRGB">
<feFlood flood-opacity="0" result="BackgroundImageFix"/>
<feBlend mode="normal" in="SourceGraphic" in2="BackgroundImageFix" result="shape"/>
<feGaussianBlur stdDeviation="50" result="effect1_foregroundBlur"/>
</filter>
<filter id="filter2_f" x="348" y="-67.9131" width="420.952" height="371.481" filterUnits="userSpaceOnUse" color-interpolation-filters="sRGB">
<feFlood flood-opacity="0" result="BackgroundImageFix"/>
<feBlend mode="normal" in="SourceGraphic" in2="BackgroundImageFix" result="shape"/>
<feGaussianBlur stdDeviation="50" result="effect1_foregroundBlur"/>
</filter>
<radialGradient id="paint0_radial" cx="0" cy="0" r="1" gradientUnits="userSpaceOnUse" gradientTransform="rotate(24.1712) scale(677.389 628.854)">
<stop stop-color="#FFE1A6"/>
<stop offset="1" stop-color="#F1C267"/>
</radialGradient>
<clipPath id="clip0">
<rect width="618" height="277" fill="white"/>
</clipPath>
</defs>
</svg>
