<svg width="44" height="64" viewBox="0 0 44 64" fill="none" xmlns="http://www.w3.org/2000/svg">
<path d="M7.42711 1.40421L10.8088 0.303395C13.983 -0.727017 17.3679 0.940202 18.7287 4.19784L21.4284 10.6875C22.6038 13.5132 21.9533 16.838 19.813 18.9052L13.8605 24.6589C14.225 28.1021 15.3627 31.491 17.2673 34.8254C19.0769 38.0517 21.5039 40.8755 24.4047 43.1295L31.5546 40.6975C34.2668 39.7791 37.218 40.8383 38.8774 43.3247L42.7525 49.1168C44.6853 52.0096 44.3396 55.9968 41.9416 58.4481L39.3708 61.0753C36.8125 63.6897 33.1574 64.6401 29.7789 63.5649C21.7993 61.0305 14.4639 53.5072 7.76968 40.9951C1.06603 28.4637 -1.30052 17.8268 0.67318 9.0971C1.50289 5.42345 4.07057 2.49542 7.42711 1.40421Z" fill="url(#paint0_radial)"/>
<defs>
<radialGradient id="paint0_radial" cx="0" cy="0" r="1" gradientUnits="userSpaceOnUse" gradientTransform="translate(-3.3 -6.62069) rotate(56.1873) scale(84.9979 59.1209)">
<stop stop-color="#64D75A"/>
<stop offset="1" stop-color="#064D04"/>
<stop offset="1" stop-color="#064D04"/>
</radialGradient>
</defs>
</svg>
