<svg width="47" height="47" viewBox="0 0 47 47" fill="none" xmlns="http://www.w3.org/2000/svg">
<path d="M23.5 0C29.7326 0 35.7099 2.47589 40.117 6.88299C44.5241 11.2901 47 17.2674 47 23.5C47 29.7326 44.5241 35.7099 40.117 40.117C35.7099 44.5241 29.7326 47 23.5 47C17.2674 47 11.2901 44.5241 6.88299 40.117C2.47589 35.7099 0 29.7326 0 23.5C0 17.2674 2.47589 11.2901 6.88299 6.88299C11.2901 2.47589 17.2674 0 23.5 0ZM13.2188 22.0313C12.8292 22.0313 12.4556 22.186 12.1802 22.4614C11.9047 22.7369 11.75 23.1105 11.75 23.5C11.75 23.8895 11.9047 24.2631 12.1802 24.5386C12.4556 24.814 12.8292 24.9688 13.2188 24.9688H30.2357L23.9289 31.2726C23.7923 31.4092 23.684 31.5713 23.6101 31.7497C23.5362 31.9281 23.4981 32.1194 23.4981 32.3125C23.4981 32.5056 23.5362 32.6969 23.6101 32.8753C23.684 33.0537 23.7923 33.2158 23.9289 33.3524C24.0654 33.4889 24.2276 33.5973 24.406 33.6712C24.5844 33.7451 24.7756 33.7831 24.9688 33.7831C25.1619 33.7831 25.3531 33.7451 25.5315 33.6712C25.71 33.5973 25.8721 33.4889 26.0086 33.3524L34.8211 24.5399C34.9579 24.4034 35.0664 24.2414 35.1405 24.0629C35.2145 23.8845 35.2526 23.6932 35.2526 23.5C35.2526 23.3068 35.2145 23.1155 35.1405 22.9371C35.0664 22.7586 34.9579 22.5966 34.8211 22.4601L26.0086 13.6476C25.8721 13.5111 25.71 13.4027 25.5315 13.3288C25.3531 13.2549 25.1619 13.2169 24.9688 13.2169C24.7756 13.2169 24.5844 13.2549 24.406 13.3288C24.2276 13.4027 24.0654 13.5111 23.9289 13.6476C23.7923 13.7842 23.684 13.9463 23.6101 14.1247C23.5362 14.3031 23.4981 14.4944 23.4981 14.6875C23.4981 14.8806 23.5362 15.0719 23.6101 15.2503C23.684 15.4287 23.7923 15.5908 23.9289 15.7274L30.2357 22.0313H13.2188Z" fill="#F3F2F7"/>
</svg>
